<?xml version="1.0" encoding="iso-8859-1"?>
<!-- Generator: Adobe Illustrator 19.0.0, SVG Export Plug-In . SVG Version: 6.00 Build 0)  -->
<svg xmlns="http://www.w3.org/2000/svg" xmlns:xlink="http://www.w3.org/1999/xlink" version="1.1" id="Layer_1" x="0px" y="0px" viewBox="0 0 512.09 512.09" style="enable-background:new 0 0 512.09 512.09;" xml:space="preserve" width="512" height="512">
<g id="_x3C_Group_x3E__85_">
	<g>
		<g>
			<path style="fill:#FF637B;" d="M474.99,79.635c-25.26-29.98-60.29-46.49-98.64-46.49c-61.7,0-101.86,33.01-120.75,53.36     c-18.89-20.35-59.05-53.36-120.74-53.36c-38.33,0-73.23,16.53-98.26,46.55C13,107.995,0,145.795,0,186.135     c0,18.72,2.95,37.7,8.73,56.62c3.06,10.03,6.91,20.05,11.55,30c9.47,20.36,22.18,40.46,38,59.92     c42.39,52.17,106.5,100.23,190.54,142.83l6.78,3.44l6.78-3.44c84.12-42.64,148.37-90.69,190.96-142.8     c15.92-19.48,28.73-39.6,38.28-59.95c4.68-9.96,8.57-19.98,11.66-30c5.83-18.94,8.81-37.91,8.81-56.62     C512.09,145.845,498.92,108.015,474.99,79.635z"/>
		</g>
	</g>
	<path style="fill:#E63950;" d="M453.34,332.705c15.92-19.48,28.73-39.6,38.28-59.95c4.68-9.96,8.57-19.98,11.66-30   c5.83-18.94,8.81-37.91,8.81-56.62c0-40.29-13.17-78.12-37.1-106.5c-25.26-29.98-60.29-46.49-98.64-46.49   c-61.7,0-101.86,33.01-120.75,53.36v392.44l6.78-3.44C346.5,432.865,410.75,384.815,453.34,332.705z"/>
	<g>
		<path style="fill:#ECECF1;" d="M503.28,242.755c-3.09,10.02-6.98,20.04-11.66,30H220.88l-19.55-19.55l-49.68,101.49l-60.28-150.7    l-35.09,68.76h-36c-4.64-9.95-8.49-19.97-11.55-30h29.18l56.78-111.24l59.72,149.3l38.44-78.51l40.45,40.45H503.28z"/>
	</g>
	<path style="fill:#D3D3D8;" d="M255.6,272.755h236.02c4.68-9.96,8.57-19.98,11.66-30H255.6V272.755z"/>
</g>















</svg>
