<svg id="Layer_1" height="512" viewBox="0 0 128 128" width="512" xmlns="http://www.w3.org/2000/svg" data-name="Layer 1"><path d="m62.321 42.037a9.169 9.169 0 0 1 -6.529-4.114l-.026-.038c-5.192-7.668-15.083-10.036-22.092-5.29s-8.483 14.805-3.291 22.478l.026.038a9.169 9.169 0 0 1 1.4 7.59c-2.957 10.764-.767 23.918 6.934 35.291 12.455 18.395 34.59 25.155 49.441 15.1s16.792-33.118 4.337-51.513c-7.707-11.374-19.108-18.291-30.2-19.542z" fill="#b4df45"/><path d="m72.549 114.75c-11.622 0-23.626-7.066-31.328-18.44-6.921-10.223-9.361-22.49-6.521-32.81a12.186 12.186 0 0 0 -1.809-10.074c-4.28-6.326-3.164-14.535 2.464-18.346a11.345 11.345 0 0 1 6.39-1.931 14.083 14.083 0 0 1 11.536 6.419 12.206 12.206 0 0 0 8.7 5.45c10.639 1.2 21.124 8.02 28.045 18.243 5.641 8.331 8.328 17.9 7.566 26.95-.742 8.808-4.685 16.052-11.1 20.4a24.734 24.734 0 0 1 -13.942 4.139z" fill="#fd9d27"/><ellipse cx="62.731" cy="75.51" fill="#fece34" rx="12.643" ry="32.289" transform="matrix(.828 -.561 .561 .828 -31.549 48.156)"/><g fill="#e9752f"><path d="m68.233 70.321a1.75 1.75 0 1 0 -2.9 1.961.675.675 0 0 1 -1.117.757 1.75 1.75 0 1 0 -2.897 1.961 4.175 4.175 0 0 0 6.914-4.68z"/><path d="m72.047 84.6a1.75 1.75 0 1 0 -2.9 1.961.675.675 0 0 1 -1.117.757 1.75 1.75 0 0 0 -2.9 1.963 4.175 4.175 0 0 0 6.917-4.681z"/><path d="m51.9 59.515a1.75 1.75 0 0 0 -.467 2.43.675.675 0 0 1 -1.117.756 1.75 1.75 0 0 0 -2.9 1.962 4.145 4.145 0 0 0 2.667 1.759 4.212 4.212 0 0 0 .8.077 4.175 4.175 0 0 0 3.448-6.517 1.749 1.749 0 0 0 -2.431-.467z"/></g><path d="m39.637 11.054s5.943-3.5 9.685 4.109c0 0-4.435 2.794-8.193 1.26s-1.492-5.369-1.492-5.369z" fill="#b4df45"/><path d="m33.673 32.6s-7.259-11.647 5.964-21.542c0 0 2.136 6.4 9.685 4.109-.001-.004-16.842 5.933-15.649 17.433z" fill="#96d228"/></svg>